<svg width="1440" height="1024" viewBox="0 0 1440 1024" fill="none" xmlns="http://www.w3.org/2000/svg">
<g filter="url(#filter0_f_55_15)">
<path d="M1642.96 308.601C1642.99 513.792 1369.96 554.369 1194.79 554.391C1019.63 554.414 549.998 574.698 549.972 369.506C549.946 164.315 866.196 -90.0186 1041.36 -90.0408C1216.53 -90.063 1642.94 103.409 1642.96 308.601Z" fill="#7EDAEE" fill-opacity="0.87"/>
<path d="M837.929 31.5861C837.95 199.34 292.357 526.054 115.756 526.077C-60.8446 526.099 -204.025 390.126 -204.047 222.372C-204.068 54.6184 -60.9218 -81.391 115.679 -81.4134C292.28 -81.4359 837.908 -136.168 837.929 31.5861Z" fill="#90C2F0"/>
<path d="M1030.96 539.961C1054.48 714.458 849.314 848.484 639.998 848.51C430.682 848.537 144.99 787.628 144.964 581.073C144.938 374.519 345.084 183.624 526.964 302.025C892.494 539.978 1030.95 460.461 1030.96 539.961Z" fill="#97CEED"/>
<path d="M626.893 710.525C869.391 698.994 971.445 1120.98 406.445 1121.05C222.258 1121.08 -76.5524 1141.8 -76.5758 957.614C-76.5992 773.427 -220.324 472.132 -36.1375 472.109C163.367 506.083 377.4 765.056 626.893 710.525Z" fill="#98DEED"/>
<path d="M1585.07 633.502C1585.1 829.563 1610.71 1268.5 1414.65 1268.52C1218.59 1268.55 720.092 1163.16 720.067 967.103C720.042 771.042 975.986 438.079 1172.05 438.054C1368.11 438.029 1666.57 633.491 1585.07 633.502Z" fill="#92C9FB"/>
</g>
<defs>
<filter id="filter0_f_55_15" x="-404.047" y="-290.041" width="2247.01" height="1758.56" filterUnits="userSpaceOnUse" color-interpolation-filters="sRGB">
<feFlood flood-opacity="0" result="BackgroundImageFix"/>
<feBlend mode="normal" in="SourceGraphic" in2="BackgroundImageFix" result="shape"/>
<feGaussianBlur stdDeviation="100" result="effect1_foregroundBlur_55_15"/>
</filter>
</defs>
</svg>
